<?xml version="1.0" standalone="no"?>
<!DOCTYPE svg PUBLIC "-//W3C//DTD SVG 20010904//EN"
 "http://www.w3.org/TR/2001/REC-SVG-20010904/DTD/svg10.dtd">
<svg version="1.0" xmlns="http://www.w3.org/2000/svg"
 width="700.000000pt" height="700.000000pt" viewBox="0 0 700.000000 700.000000"
 preserveAspectRatio="xMidYMid meet">
<metadata>
Created by potrace 1.11, written by Peter Selinger 2001-2013
</metadata>
<g transform="translate(0.000000,700.000000) scale(0.100000,-0.100000)"
fill="#000000" stroke="none">
<path d="M0 3500 l0 -3500 3500 0 3500 0 0 3500 0 3500 -3500 0 -3500 0 0
-3500z m2830 2520 c0 -5 14 -10 30 -10 17 0 30 -4 30 -10 0 -5 9 -10 20 -10
11 0 20 -4 20 -10 0 -5 6 -10 14 -10 7 0 19 -13 26 -30 7 -16 16 -30 20 -30 3
0 15 -55 25 -121 18 -116 18 -125 2 -188 -10 -36 -21 -68 -26 -71 -5 -3 -19
-25 -31 -50 -13 -25 -32 -57 -44 -71 -11 -14 -28 -36 -36 -49 -8 -13 -45 -54
-82 -92 -38 -38 -68 -73 -68 -78 0 -6 -6 -10 -14 -10 -8 0 -18 -9 -21 -20 -3
-11 -11 -20 -17 -20 -5 0 -35 -26 -66 -58 -86 -87 -202 -187 -347 -297 -71
-55 -137 -107 -146 -117 -9 -10 -21 -18 -28 -18 -6 0 -11 -4 -11 -10 0 -5 -7
-10 -15 -10 -8 0 -15 -4 -15 -10 0 -5 -6 -10 -13 -10 -7 0 -19 -9 -27 -20 -8
-11 -20 -20 -27 -20 -7 0 -13 -4 -13 -10 0 -5 -7 -10 -15 -10 -8 0 -15 -4 -15
-10 0 -5 -8 -10 -18 -10 -10 0 -24 -9 -32 -20 -8 -11 -20 -20 -27 -20 -7 0
-13 -4 -13 -10 0 -5 -9 -10 -20 -10 -11 0 -20 -4 -20 -10 0 -5 -7 -10 -15 -10
-8 0 -15 -4 -15 -10 0 -5 -7 -10 -15 -10 -8 0 -15 -4 -15 -10 0 -5 -7 -10 -15
-10 -8 0 -15 -4 -15 -10 0 -5 -7 -10 -15 -10 -8 0 -15 -4 -15 -10 0 -5 -9 -10
-20 -10 -11 0 -20 -4 -20 -10 0 -5 -7 -10 -15 -10 -8 0 -15 -4 -15 -8 0 -5
-10 -14 -22 -20 -13 -6 -48 -26 -78 -43 -160 -93 -587 -299 -619 -299 -6 0
-11 -4 -11 -10 0 -5 -11 -10 -25 -10 -14 0 -25 -4 -25 -10 0 -5 -11 -10 -25
-10 -14 0 -25 -4 -25 -10 0 -5 -13 -10 -30 -10 -16 0 -30 -4 -30 -10 0 -5 -13
-10 -30 -10 -16 0 -30 -4 -30 -10 0 -5 -18 -10 -40 -10 -22 0 -40 -4 -40 -10
0 -5 -22 -10 -50 -10 -27 0 -50 -4 -50 -10 0 -6 -50 -10 -130 -10 -80 0 -130
4 -130 10 0 6 -11 10 -25 10 -14 0 -25 5 -25 10 0 6 -5 10 -10 10 -6 0 -22 11
-35 24 -49 49 -85 343 -47 388 5 7 15 31 21 54 6 22 20 51 31 64 11 12 22 31
25 41 4 11 10 19 14 19 4 0 13 11 19 25 7 14 18 32 24 41 51 60 68 79 103 120
120 139 397 424 411 424 3 0 19 14 34 30 15 17 32 30 37 30 5 0 15 9 23 20 8
11 19 20 25 20 6 0 17 9 25 20 8 11 20 20 27 20 7 0 13 5 13 10 0 6 6 10 13
10 7 0 19 9 27 20 8 11 19 20 25 20 6 0 17 9 25 20 8 11 20 20 27 20 7 0 13 5
13 10 0 6 7 10 15 10 8 0 15 5 15 10 0 6 7 10 15 10 8 0 15 5 15 10 0 6 5 10
10 10 6 0 21 9 33 21 48 44 348 222 522 309 50 25 92 48 93 53 2 4 12 7 23 7
10 0 19 5 19 10 0 6 9 10 20 10 11 0 20 5 20 10 0 6 9 10 20 10 11 0 20 5 20
10 0 6 11 10 25 10 14 0 25 5 25 10 0 6 11 10 25 10 14 0 25 5 25 10 0 6 11
10 25 10 14 0 25 5 25 10 0 6 11 10 25 10 14 0 25 5 25 10 0 6 14 10 30 10 17
0 30 5 30 10 0 6 16 10 35 10 19 0 35 5 35 10 0 6 16 10 35 10 19 0 35 5 35
10 0 6 20 10 45 10 25 0 45 5 45 10 0 6 28 10 65 10 37 0 65 4 65 10 0 6 28
10 65 10 37 0 65 4 65 10 0 6 38 10 95 10 57 0 95 -4 95 -10z m2030 -1109 l0
-139 -197 -4 c-191 -3 -200 -4 -256 -30 -51 -24 -60 -33 -83 -82 -28 -62 -44
-174 -44 -313 l0 -93 250 0 250 0 0 -130 0 -130 -247 -2 -248 -3 -3 -897 -2
-898 -150 0 -150 0 0 900 0 900 -140 0 -140 0 0 130 0 130 139 0 138 0 6 153
c3 83 12 188 21 232 34 167 124 295 248 354 101 48 179 59 406 60 l202 1 0
-139z m-1570 -1346 l0 -1375 -160 0 -160 0 -1 1198 -1 1197 -311 -932 -312
-933 -165 0 -165 0 -248 743 c-136 409 -247 750 -247 759 0 9 12 23 28 31 73
37 128 71 138 83 6 8 18 14 27 14 8 0 17 6 20 13 8 22 33 -47 239 -670 111
-337 205 -609 209 -605 4 4 145 422 314 930 l307 922 244 0 244 0 0 -1375z
m2585 720 c152 -32 289 -127 381 -265 l44 -65 0 148 0 147 150 0 150 0 0 -996
c0 -848 -2 -1012 -16 -1101 -50 -338 -180 -547 -409 -658 -137 -66 -215 -80
-435 -79 -202 1 -299 16 -463 71 l-82 28 -3 163 c-1 89 0 162 3 162 3 0 47
-20 98 -45 51 -24 133 -56 182 -71 79 -24 107 -27 235 -28 156 -1 214 10 314
61 67 34 154 124 194 200 57 108 74 195 79 403 l4 185 -30 -51 c-74 -126 -198
-226 -334 -270 -70 -23 -100 -27 -207 -28 -142 -1 -201 13 -314 72 -219 115
-377 386 -427 733 -17 119 -14 393 4 514 19 121 55 246 97 339 100 223 284
388 480 430 86 19 218 19 305 1z m-4486 -1127 l1 -968 -160 0 -160 0 0 920 c0
613 3 920 10 920 11 0 57 20 185 80 103 49 109 50 117 31 4 -9 7 -451 7 -983z"/>
<path d="M2425 5633 c-33 -8 -76 -18 -95 -22 -36 -9 -120 -36 -155 -50 -11 -5
-72 -30 -135 -56 -135 -56 -234 -104 -238 -116 -2 -5 -12 -9 -23 -9 -10 0 -19
-4 -19 -10 0 -5 -9 -10 -20 -10 -11 0 -20 -4 -20 -10 0 -5 -9 -10 -20 -10 -11
0 -20 -4 -20 -10 0 -5 -7 -10 -15 -10 -8 0 -15 -4 -15 -10 0 -5 -9 -10 -20
-10 -11 0 -20 -4 -20 -10 0 -5 -9 -10 -20 -10 -11 0 -20 -4 -20 -10 0 -5 -7
-10 -15 -10 -8 0 -15 -4 -15 -10 0 -5 -9 -10 -20 -10 -11 0 -20 -4 -20 -10 0
-5 -7 -10 -15 -10 -8 0 -15 -4 -15 -10 0 -5 -7 -10 -15 -10 -8 0 -15 -4 -15
-10 0 -5 -7 -10 -15 -10 -8 0 -15 -4 -15 -10 0 -5 -9 -10 -20 -10 -11 0 -20
-4 -20 -10 0 -5 -7 -10 -15 -10 -8 0 -15 -4 -15 -10 0 -5 -7 -10 -15 -10 -8 0
-15 -4 -15 -10 0 -5 -7 -10 -15 -10 -8 0 -15 -4 -15 -10 0 -5 -7 -10 -15 -10
-8 0 -15 -4 -15 -10 0 -5 -9 -10 -20 -10 -11 0 -20 -4 -20 -9 0 -5 -42 -37
-92 -72 -51 -34 -95 -65 -98 -68 -3 -4 -39 -31 -80 -62 -100 -76 -144 -113
-212 -181 -31 -32 -60 -58 -64 -58 -9 0 -64 -61 -64 -71 0 -5 -7 -9 -15 -9 -8
0 -15 -4 -15 -9 0 -8 -20 -33 -80 -98 -11 -12 -30 -43 -42 -68 -12 -25 -26
-45 -30 -45 -15 0 -8 -38 8 -44 24 -9 108 -7 187 5 94 14 261 58 265 70 2 5
15 9 28 9 13 0 24 5 24 10 0 6 14 10 30 10 17 0 30 5 30 10 0 6 11 10 25 10
14 0 25 5 25 10 0 6 7 10 15 10 13 0 15 36 15 263 l0 262 244 4 244 3 37 -114
c21 -62 39 -115 41 -117 2 -2 27 11 56 29 29 18 64 39 78 47 58 31 351 244
357 260 3 7 10 13 17 13 6 0 18 9 26 20 8 11 19 20 25 20 6 0 17 9 25 20 8 11
18 20 23 20 5 0 22 14 37 30 15 17 31 30 34 30 17 0 250 248 295 314 8 12 18
23 21 26 3 3 16 22 29 43 34 56 20 67 -88 66 -47 -1 -113 -8 -146 -16z"/>
<path d="M5715 4009 c-213 -32 -360 -216 -410 -517 -26 -156 -17 -451 18 -583
74 -281 235 -429 464 -429 144 1 228 33 318 125 96 97 149 216 181 406 23 141
15 436 -16 559 -56 224 -189 389 -345 428 -65 16 -146 21 -210 11z"/>
</g>
</svg>
